{
    "asset" : {
        "generator" : "Khronos glTF Blender I/O v1.5.17",
        "version" : "2.0"
    },
    "scene" : 0,
    "scenes" : [
        {
            "name" : "Scene",
            "nodes" : [
                0
            ]
        }
    ],
    "nodes" : [
        {
            "mesh" : 0,
            "name" : "Mineral_M",
            "scale" : [
                1.1018447875976562,
                1.1018447875976562,
                1.1018447875976562
            ]
        }
    ],
    "materials" : [
        {
            "doubleSided" : true,
            "name" : "Mineral_M",
            "pbrMetallicRoughness" : {
                "baseColorTexture" : {
                    "index" : 0
                },
                "metallicFactor" : 0,
                "roughnessFactor" : 0.5
            }
        }
    ],
    "meshes" : [
        {
            "name" : "\u5186\u67f1.016",
            "primitives" : [
                {
                    "attributes" : {
                        "POSITION" : 0,
                        "NORMAL" : 1,
                        "TEXCOORD_0" : 2
                    },
                    "indices" : 3,
                    "material" : 0
                }
            ]
        }
    ],
    "textures" : [
        {
            "sampler" : 0,
            "source" : 0
        }
    ],
    "images" : [
        {
            "mimeType" : "image/png",
            "name" : "Mineral_M",
            "uri" : "Mineral_M.png"
        }
    ],
    "accessors" : [
        {
            "bufferView" : 0,
            "componentType" : 5126,
            "count" : 5939,
            "max" : [
                1.3730651140213013,
                1.587443232536316,
                1.0008841753005981
            ],
            "min" : [
                -1.3965861797332764,
                -1.2720787525177002,
                -1.1384172439575195
            ],
            "type" : "VEC3"
        },
        {
            "bufferView" : 1,
            "componentType" : 5126,
            "count" : 5939,
            "type" : "VEC3"
        },
        {
            "bufferView" : 2,
            "componentType" : 5126,
            "count" : 5939,
            "type" : "VEC2"
        },
        {
            "bufferView" : 3,
            "componentType" : 5123,
            "count" : 6072,
            "type" : "SCALAR"
        }
    ],
    "bufferViews" : [
        {
            "buffer" : 0,
            "byteLength" : 71268,
            "byteOffset" : 0
        },
        {
            "buffer" : 0,
            "byteLength" : 71268,
            "byteOffset" : 71268
        },
        {
            "buffer" : 0,
            "byteLength" : 47512,
            "byteOffset" : 142536
        },
        {
            "buffer" : 0,
            "byteLength" : 12144,
            "byteOffset" : 190048
        }
    ],
    "samplers" : [
        {
            "magFilter" : 9729,
            "minFilter" : 9987
        }
    ],
    "buffers" : [
        {
            "byteLength" : 202192,
            "uri" : "Mineral_M.bin"
        }
    ]
}
