{
    "asset" : {
        "generator" : "Khronos glTF Blender I/O v1.5.17",
        "version" : "2.0"
    },
    "scene" : 0,
    "scenes" : [
        {
            "name" : "Scene",
            "nodes" : [
                0
            ]
        }
    ],
    "nodes" : [
        {
            "mesh" : 0,
            "name" : "Stage_Tree"
        }
    ],
    "materials" : [
        {
            "doubleSided" : true,
            "name" : "Tree_obj",
            "pbrMetallicRoughness" : {
                "baseColorTexture" : {
                    "index" : 0
                },
                "metallicFactor" : 0,
                "roughnessFactor" : 0.5
            }
        }
    ],
    "meshes" : [
        {
            "name" : "ICO\u7403.001",
            "primitives" : [
                {
                    "attributes" : {
                        "POSITION" : 0,
                        "NORMAL" : 1,
                        "TEXCOORD_0" : 2
                    },
                    "indices" : 3,
                    "material" : 0
                }
            ]
        }
    ],
    "textures" : [
        {
            "sampler" : 0,
            "source" : 0
        }
    ],
    "images" : [
        {
            "mimeType" : "image/png",
            "name" : "Stage_Tree",
            "uri" : "Stage_Tree.png"
        }
    ],
    "accessors" : [
        {
            "bufferView" : 0,
            "componentType" : 5126,
            "count" : 40422,
            "max" : [
                137.0331573486328,
                8.941962242126465,
                148.6762237548828
            ],
            "min" : [
                -2.99368953704834,
                -4.885624885559082,
                -50.34881591796875
            ],
            "type" : "VEC3"
        },
        {
            "bufferView" : 1,
            "componentType" : 5126,
            "count" : 40422,
            "type" : "VEC3"
        },
        {
            "bufferView" : 2,
            "componentType" : 5126,
            "count" : 40422,
            "type" : "VEC2"
        },
        {
            "bufferView" : 3,
            "componentType" : 5123,
            "count" : 40422,
            "type" : "SCALAR"
        }
    ],
    "bufferViews" : [
        {
            "buffer" : 0,
            "byteLength" : 485064,
            "byteOffset" : 0
        },
        {
            "buffer" : 0,
            "byteLength" : 485064,
            "byteOffset" : 485064
        },
        {
            "buffer" : 0,
            "byteLength" : 323376,
            "byteOffset" : 970128
        },
        {
            "buffer" : 0,
            "byteLength" : 80844,
            "byteOffset" : 1293504
        }
    ],
    "samplers" : [
        {
            "magFilter" : 9729,
            "minFilter" : 9987
        }
    ],
    "buffers" : [
        {
            "byteLength" : 1374348,
            "uri" : "Stage_Tree.bin"
        }
    ]
}
