{
    "asset" : {
        "generator" : "Khronos glTF Blender I/O v1.5.17",
        "version" : "2.0"
    },
    "scene" : 0,
    "scenes" : [
        {
            "name" : "Scene",
            "nodes" : [
                0
            ]
        }
    ],
    "nodes" : [
        {
            "mesh" : 0,
            "name" : "Mineral_L",
            "scale" : [
                1.9299882650375366,
                1.9299882650375366,
                1.9299882650375366
            ]
        }
    ],
    "materials" : [
        {
            "doubleSided" : true,
            "name" : "Mineral_L",
            "pbrMetallicRoughness" : {
                "baseColorTexture" : {
                    "index" : 0
                },
                "metallicFactor" : 0,
                "roughnessFactor" : 0.5
            }
        }
    ],
    "meshes" : [
        {
            "name" : "\u5186\u67f1.011",
            "primitives" : [
                {
                    "attributes" : {
                        "POSITION" : 0,
                        "NORMAL" : 1,
                        "TEXCOORD_0" : 2
                    },
                    "indices" : 3,
                    "material" : 0
                }
            ]
        }
    ],
    "textures" : [
        {
            "sampler" : 0,
            "source" : 0
        }
    ],
    "images" : [
        {
            "mimeType" : "image/png",
            "name" : "Mineral_L",
            "uri" : "Mineral_L.png"
        }
    ],
    "accessors" : [
        {
            "bufferView" : 0,
            "componentType" : 5126,
            "count" : 6031,
            "max" : [
                1.1966893672943115,
                1.1558727025985718,
                1.084923505783081
            ],
            "min" : [
                -1.2577133178710938,
                -1.609883427619934,
                -1.3361659049987793
            ],
            "type" : "VEC3"
        },
        {
            "bufferView" : 1,
            "componentType" : 5126,
            "count" : 6031,
            "type" : "VEC3"
        },
        {
            "bufferView" : 2,
            "componentType" : 5126,
            "count" : 6031,
            "type" : "VEC2"
        },
        {
            "bufferView" : 3,
            "componentType" : 5123,
            "count" : 6246,
            "type" : "SCALAR"
        }
    ],
    "bufferViews" : [
        {
            "buffer" : 0,
            "byteLength" : 72372,
            "byteOffset" : 0
        },
        {
            "buffer" : 0,
            "byteLength" : 72372,
            "byteOffset" : 72372
        },
        {
            "buffer" : 0,
            "byteLength" : 48248,
            "byteOffset" : 144744
        },
        {
            "buffer" : 0,
            "byteLength" : 12492,
            "byteOffset" : 192992
        }
    ],
    "samplers" : [
        {
            "magFilter" : 9729,
            "minFilter" : 9987
        }
    ],
    "buffers" : [
        {
            "byteLength" : 205484,
            "uri" : "Mineral_L.bin"
        }
    ]
}
